<?xml version="1.0" encoding="utf-8"?>
<!-- Generator: Adobe Illustrator 19.2.1, SVG Export Plug-In . SVG Version: 6.00 Build 0)  -->
<svg version="1.1" id="Calque_2" xmlns="http://www.w3.org/2000/svg" xmlns:xlink="http://www.w3.org/1999/xlink" x="0px" y="0px"
	 viewBox="0 0 500 403.9" style="enable-background:new 0 0 500 403.9;" xml:space="preserve">
<path d="M382.4,234.1c-2.2,8.1-5.1,15.8-8.7,23.2l74.8,73.8L412.7,369c-41.8,42.9-95.4,11.8-95.4,11.8c39.1,4.1,77.3-48,77.3-48
	l-43.3-42.5c-25.3,27.7-61.7,45.1-102.2,45.1c-37.2,0-71-14.8-95.9-38.7l-42.4,27.5c0,0,31.5,62.5,60.5,66.3c0,0-54.5,21-87.7-36.4
	l-25.2-43.8l72.3-41.6c-6.1-10.1-10.9-21-14.3-32.5c-11.7-14-42-52-42-52s-52.1,35.5-58.1,72.3c0,0-28.1-56.3,24.6-93l41.2-29.3
	L113,173c6.4-36.2,26.9-67.5,55.6-88.1L162.2,59c0,0-66.9,11-81.2,49c0,0-8.9-64.7,56.3-81l48.3-13.6l15.8,54.1
	c14.9-5.5,31-8.5,47.7-8.5c15.9,0,31.1,2.7,45.4,7.7L352.6,0c0,0,13.3,8.6,47.4,42.4s8,85.6,8,85.6c-3.3-44.4-53.6-75.8-53.6-75.8
	L327.1,83c30.9,21.1,52.8,54.5,58.8,93.1l47-44.3c0,0,19.3,17.5,46.2,45.3s0,85.4,0,85.4c0-45.8-48.3-79.4-48.3-79.4L382.4,234.1z
	 M287.5,223.4c-10.8,0-19.5,8.8-19.5,19.5c0,10.8,8.8,19.5,19.5,19.5c10.8,0,19.5-8.8,19.5-19.5
	C307.1,232.1,298.3,223.4,287.5,223.4z M212.9,223.4c-10.8,0-19.5,8.8-19.5,19.5c0,10.8,8.8,19.5,19.5,19.5
	c10.8,0,19.5-8.8,19.5-19.5C232.4,232.1,223.7,223.4,212.9,223.4z"/>
</svg>
