<?xml version="1.0" standalone="no"?>
<!DOCTYPE svg PUBLIC "-//W3C//DTD SVG 20010904//EN"
 "http://www.w3.org/TR/2001/REC-SVG-20010904/DTD/svg10.dtd">
<svg version="1.0" xmlns="http://www.w3.org/2000/svg"
 width="500.000000pt" height="500.000000pt" viewBox="0 0 500.000000 500.000000"
 preserveAspectRatio="xMidYMid meet">
<metadata>
Created by potrace 1.11, written by Peter Selinger 2001-2013
</metadata>
<g transform="translate(0.000000,500.000000) scale(0.100000,-0.100000)"
fill="#000000" stroke="none">
<path d="M3484 4472 c-23 -26 -92 -105 -154 -177 -62 -71 -124 -143 -139 -160
-34 -38 -202 -233 -226 -261 -16 -20 -20 -21 -64 -7 -119 37 -231 54 -371 58
-161 4 -240 -4 -380 -41 -52 -14 -104 -28 -115 -30 -19 -5 -24 6 -54 108 -55
184 -70 235 -90 301 -10 34 -21 74 -25 90 -4 15 -12 27 -19 27 -39 0 -589
-165 -650 -195 -223 -109 -360 -312 -383 -570 -7 -69 -7 -87 -5 -135 l1 -35
33 57 c72 128 200 226 407 315 95 41 289 100 344 105 l28 3 32 -128 33 -127
-51 -39 c-236 -183 -429 -482 -487 -756 -6 -33 -15 -64 -19 -68 -4 -5 -74 75
-155 177 -81 102 -151 186 -157 186 -7 0 -247 -166 -293 -203 -5 -4 -46 -33
-90 -65 -100 -71 -155 -121 -211 -194 -138 -178 -171 -436 -89 -683 15 -43 42
-91 34 -60 -5 19 23 99 56 166 81 160 262 356 482 519 l37 28 109 -137 c144
-180 160 -200 242 -300 54 -66 76 -102 94 -156 13 -38 44 -111 70 -161 l47
-91 -31 -18 c-16 -10 -48 -28 -70 -40 -161 -92 -602 -348 -609 -355 -9 -9 7
-40 159 -300 131 -226 152 -256 224 -329 138 -141 309 -213 501 -212 47 0 92
2 100 4 8 2 36 7 63 12 57 9 68 21 28 30 -62 13 -173 99 -262 201 -91 106
-163 209 -244 349 -54 94 -56 100 -39 113 11 8 69 46 129 85 61 40 147 96 192
125 l81 53 78 -63 c102 -82 170 -126 273 -178 272 -136 589 -176 896 -114 254
52 521 197 695 377 19 20 39 37 43 37 11 0 427 -411 427 -422 0 -13 -46 -64
-150 -168 -113 -112 -124 -121 -215 -181 -128 -85 -210 -116 -325 -126 l-74
-6 44 -19 c236 -100 484 -110 667 -27 133 61 221 141 567 517 l30 32 -373 368
-373 367 35 86 c19 47 38 99 41 115 4 16 37 61 78 104 39 41 138 145 220 231
82 86 159 169 172 184 l23 27 61 -51 c252 -210 412 -482 422 -716 1 -28 3 -26
21 20 79 192 115 430 89 576 -24 136 -49 170 -318 436 -135 134 -249 242 -253
241 -4 -2 -67 -59 -140 -128 -72 -69 -144 -136 -158 -149 -14 -13 -58 -55 -98
-93 -67 -65 -72 -68 -77 -46 -60 283 -158 484 -336 688 -57 65 -223 210 -241
210 -19 0 -6 16 222 268 l46 50 65 -49 c249 -186 432 -446 462 -657 7 -48 11
-48 29 0 103 280 94 520 -27 707 -55 85 -456 467 -536 511 -11 6 -26 -4 -56
-38z m-1292 -2197 c40 -12 87 -55 109 -97 82 -160 -88 -338 -250 -263 -131 61
-156 234 -47 321 59 47 119 60 188 39z m770 -11 c141 -72 140 -276 -2 -346
-81 -40 -173 -22 -229 45 -38 45 -49 78 -47 138 6 138 156 226 278 163z"/>
</g>
</svg>
